#N canvas -890 392 604 531 10;
#X obj 222 6 metro 500;
#X obj 104 106 tgl 25 0 empty empty empty 17 7 0 10 -262144 -258113
-1 0 1;
#X obj 222 53 % 8;
#X obj 104 137 tgl 15 0 empty empty empty 17 7 0 10 -262144 -1 -1 0
1;
#X obj 124 137 tgl 15 0 empty empty empty 17 7 0 10 -262144 -1 -1 0
1;
#X obj 144 137 tgl 15 0 empty empty empty 17 7 0 10 -262144 -1 -1 0
1;
#X obj 164 137 tgl 15 0 empty empty empty 17 7 0 10 -262144 -1 -1 0
1;
#X obj 184 137 tgl 15 0 empty empty empty 17 7 0 10 -262144 -1 -1 0
1;
#X obj 204 137 tgl 15 0 empty empty empty 17 7 0 10 -262144 -1 -1 0
1;
#X obj 224 137 tgl 15 0 empty empty empty 17 7 0 10 -262144 -1 -1 0
1;
#X obj 244 137 tgl 15 0 empty empty empty 17 7 0 10 -262144 -1 -1 0
1;
#X floatatom 104 155 3 0 127 0 - - -;
#X floatatom 124 155 3 0 127 0 - - -;
#X floatatom 144 155 3 0 127 0 - - -;
#X floatatom 164 155 3 0 127 0 - - -;
#X floatatom 184 155 3 0 127 0 - - -;
#X floatatom 204 155 3 0 127 0 - - -;
#X floatatom 224 155 3 0 127 0 - - -;
#X floatatom 244 155 3 0 127 0 - - -;
#X floatatom 227 114 5 0 127 2 note - -;
#X obj 89 196 int;
#X obj 89 217 spigot;
#X obj 119 196 int;
#X obj 119 217 spigot;
#X obj 149 196 int;
#X obj 149 217 spigot;
#X obj 179 196 int;
#X obj 179 217 spigot;
#X obj 229 196 int;
#X obj 259 196 int;
#X obj 259 227 spigot;
#X obj 289 196 int;
#X obj 289 217 spigot;
#X obj 319 196 int;
#X obj 319 217 spigot;
#X obj 222 78 sel 0 1 2 3 4 5 6 7;
#X obj 229 217 spigot;
#X floatatom 135 114 5 1 32 2 steps - -;
#X obj 89 273 makenote 100 100;
#X obj 97 321 noteout;
#X floatatom 181 114 5 10 10000 2 ms - -;
#X obj 400 70 loadbang;
#X msg 400 102 8;
#X msg 437 102 250;
#X msg 470 102 60;
#X obj 104 176 bng 10 250 50 0 empty empty empty 17 7 0 10 -262144
-1 -1;
#X obj 124 176 bng 10 250 50 0 empty empty empty 17 7 0 10 -262144
-1 -1;
#X obj 144 176 bng 10 250 50 0 empty empty empty 17 7 0 10 -262144
-1 -1;
#X obj 164 176 bng 10 250 50 0 empty empty empty 17 7 0 10 -262144
-1 -1;
#X obj 184 176 bng 10 250 50 0 empty empty empty 17 7 0 10 -262144
-1 -1;
#X obj 204 176 bng 10 250 50 0 empty empty empty 17 7 0 10 -262144
-1 -1;
#X obj 224 176 bng 10 250 50 0 empty empty empty 17 7 0 10 -262144
-1 -1;
#X obj 244 176 bng 10 250 50 0 empty empty empty 17 7 0 10 -262144
-1 -1;
#X obj 24 373 outlet;
#X obj 70 373 outlet;
#X obj 116 374 outlet;
#X obj 162 374 outlet;
#X obj 207 374 outlet;
#X obj 253 374 outlet;
#X obj 299 375 outlet;
#X obj 345 375 outlet;
#X obj 394 375 outlet;
#X obj 56 148 sel 0;
#X obj 279 172 tgl 15 1 empty empty MIDI 0 -7 0 8 -262144 -1 -1 1 1
;
#X obj 97 299 spigot;
#X obj 141 299 spigot;
#X floatatom 277 144 3 0 16 2 ch. - -;
#X msg 507 103 1;
#X obj -14 25 inlet on/off;
#X obj 222 27 i;
#X obj 255 26 + 1;
#X msg 56 172 8;
#X obj 285 113 bng 13 250 50 0 empty empty rand -5 -7 0 8 -262144 -1
-1;
#N canvas 0 244 450 323 random_sec 0;
#X obj 26 25 inlet;
#X obj 26 71 random 2;
#X obj 86 71 random 2;
#X obj 146 71 random 2;
#X obj 206 71 random 2;
#X obj 265 71 random 2;
#X obj 325 71 random 2;
#X obj 385 71 random 2;
#X obj 445 71 random 2;
#X obj 26 107 pack 0 0 0 0 0 0 0 0;
#X obj 26 132 outlet;
#X connect 0 0 1 0;
#X connect 0 0 2 0;
#X connect 0 0 3 0;
#X connect 0 0 4 0;
#X connect 0 0 5 0;
#X connect 0 0 6 0;
#X connect 0 0 7 0;
#X connect 0 0 8 0;
#X connect 1 0 9 0;
#X connect 2 0 9 1;
#X connect 3 0 9 2;
#X connect 4 0 9 3;
#X connect 5 0 9 4;
#X connect 6 0 9 5;
#X connect 7 0 9 6;
#X connect 8 0 9 7;
#X connect 9 0 10 0;
#X restore 400 142 pd random_sec;
#X obj 400 167 unpack 0 0 0 0 0 0 0 0;
#X obj 459 10 inlet random;
#X obj 67 25 inlet steps;
#X obj 139 25 inlet ms;
#X obj 308 52 /;
#X msg 308 31 60000 \$1;
#X obj 308 10 inlet tempo;
#X obj 388 10 inlet note;
#X connect 0 0 69 0;
#X connect 1 0 0 0;
#X connect 1 0 62 0;
#X connect 2 0 35 0;
#X connect 3 0 21 1;
#X connect 4 0 23 1;
#X connect 5 0 25 1;
#X connect 6 0 27 1;
#X connect 7 0 36 1;
#X connect 8 0 30 1;
#X connect 9 0 32 1;
#X connect 10 0 34 1;
#X connect 11 0 20 1;
#X connect 12 0 22 1;
#X connect 13 0 24 1;
#X connect 14 0 26 1;
#X connect 15 0 28 1;
#X connect 16 0 29 1;
#X connect 17 0 31 1;
#X connect 18 0 33 1;
#X connect 19 0 18 0;
#X connect 19 0 17 0;
#X connect 19 0 16 0;
#X connect 19 0 15 0;
#X connect 19 0 11 0;
#X connect 19 0 12 0;
#X connect 19 0 13 0;
#X connect 19 0 14 0;
#X connect 20 0 21 0;
#X connect 21 0 38 0;
#X connect 21 0 45 0;
#X connect 22 0 23 0;
#X connect 23 0 38 0;
#X connect 23 0 46 0;
#X connect 24 0 25 0;
#X connect 25 0 38 0;
#X connect 25 0 47 0;
#X connect 26 0 27 0;
#X connect 27 0 38 0;
#X connect 27 0 48 0;
#X connect 28 0 36 0;
#X connect 29 0 30 0;
#X connect 30 0 38 0;
#X connect 30 0 50 0;
#X connect 31 0 32 0;
#X connect 32 0 38 0;
#X connect 32 0 51 0;
#X connect 33 0 34 0;
#X connect 34 0 38 0;
#X connect 34 0 52 0;
#X connect 35 0 20 0;
#X connect 35 1 22 0;
#X connect 35 2 24 0;
#X connect 35 3 26 0;
#X connect 35 4 28 0;
#X connect 35 5 29 0;
#X connect 35 6 31 0;
#X connect 35 7 33 0;
#X connect 36 0 38 0;
#X connect 36 0 49 0;
#X connect 37 0 2 1;
#X connect 38 0 64 0;
#X connect 38 1 65 0;
#X connect 40 0 0 1;
#X connect 40 0 38 2;
#X connect 41 0 42 0;
#X connect 41 0 43 0;
#X connect 41 0 44 0;
#X connect 41 0 67 0;
#X connect 42 0 37 0;
#X connect 43 0 40 0;
#X connect 44 0 19 0;
#X connect 45 0 53 0;
#X connect 45 0 61 0;
#X connect 46 0 54 0;
#X connect 46 0 61 0;
#X connect 47 0 55 0;
#X connect 47 0 61 0;
#X connect 48 0 56 0;
#X connect 48 0 61 0;
#X connect 49 0 57 0;
#X connect 49 0 61 0;
#X connect 50 0 58 0;
#X connect 50 0 61 0;
#X connect 51 0 59 0;
#X connect 51 0 61 0;
#X connect 52 0 60 0;
#X connect 52 0 61 0;
#X connect 62 0 71 0;
#X connect 63 0 64 1;
#X connect 63 0 65 1;
#X connect 64 0 39 0;
#X connect 65 0 39 1;
#X connect 66 0 39 2;
#X connect 67 0 66 0;
#X connect 67 0 63 0;
#X connect 68 0 1 0;
#X connect 69 0 2 0;
#X connect 69 0 70 0;
#X connect 70 0 69 1;
#X connect 71 0 69 1;
#X connect 72 0 73 0;
#X connect 73 0 74 0;
#X connect 74 0 3 0;
#X connect 74 1 4 0;
#X connect 74 2 5 0;
#X connect 74 3 6 0;
#X connect 74 4 7 0;
#X connect 74 5 8 0;
#X connect 74 6 9 0;
#X connect 74 7 10 0;
#X connect 75 0 72 0;
#X connect 76 0 37 0;
#X connect 77 0 40 0;
#X connect 78 0 40 0;
#X connect 79 0 78 0;
#X connect 80 0 79 0;
#X connect 81 0 19 0;
#X coords 0 -1 1 1 205 90 2 100 100;
